<?xml version="1.0" encoding="UTF-8"?>
<svg xmlns="http://www.w3.org/2000/svg" xmlns:xlink="http://www.w3.org/1999/xlink" viewBox="0 0 50 50" version="1.1" width="500px" height="500px">
<g id="surface1">
<path style=" " d="M 33.585938 4 L 30.585938 7 L 16.585938 7 L 14.585938 9 L 15.585938 10 L 14.585938 11 L 15.714844 12.125 L 14.464844 14 L 12.414063 14 L 12 13.585938 L 12 8 L 7 8 L 7 18.617188 L 9 19.617188 L 9 21 L 13.414063 21 L 15.414063 23 L 17 23 L 17 16 L 23 16 L 23 19 L 20 19 L 20 23 L 25 23 L 25 16 L 31 16 L 31 19 L 28 19 L 28 23 L 33 23 L 33 16 L 39 16 L 39 19 L 36 19 L 36 23 L 45 23 L 47 21 L 47 6.765625 L 45.617188 4 Z M 9 23 L 9 29.585938 L 8 30.585938 L 8 38.585938 L 6.585938 40 L 2 40 L 2 45 L 19 45 L 19 42 L 21 42 L 21 44 L 36.414063 44 L 40.414063 40 L 45.414063 40 L 47 38.414063 L 47 28.585938 L 43.414063 25 L 36 25 L 36 33 L 39 33 L 39 36 L 33 36 L 33 25 L 28 25 L 28 33 L 31 33 L 31 36 L 25 36 L 25 25 L 20 25 L 20 33 L 23 33 L 23 36 L 17 36 L 17 25 L 14.585938 25 L 12.585938 23 Z "/>
</g>
</svg>
